<?xml version="1.0" standalone="no"?>
<!DOCTYPE svg PUBLIC "-//W3C//DTD SVG 20010904//EN"
 "http://www.w3.org/TR/2001/REC-SVG-20010904/DTD/svg10.dtd">
<svg version="1.0" xmlns="http://www.w3.org/2000/svg"
 width="2000.000000pt" height="1336.000000pt" viewBox="0 0 2000.000000 1336.000000"
 preserveAspectRatio="xMidYMid meet">

<g transform="translate(0.000000,1336.000000) scale(0.100000,-0.100000)"
fill="#000000" stroke="none">
<path d="M0 6680 l0 -6680 10000 0 10000 0 0 6680 0 6680 -10000 0 -10000 0 0
-6680z m16090 6640 c0 -5 -8 -10 -17 -10 -15 0 -16 2 -3 10 19 12 20 12 20 0z
m-7420 -75 c-7 -8 -17 -15 -22 -15 -6 0 -5 7 2 15 7 8 17 15 22 15 6 0 5 -7
-2 -15z m-5800 -105 c0 -5 -7 -10 -15 -10 -8 0 -15 -5 -15 -12 0 -6 -2 -9 -5
-6 -3 3 -3 13 1 22 7 17 34 22 34 6z m2075 -560 c-3 -5 -11 -10 -16 -10 -6 0
-7 5 -4 10 3 6 11 10 16 10 6 0 7 -4 4 -10z m12860 -450 c-3 -5 -11 -10 -16
-10 -6 0 -7 5 -4 10 3 6 11 10 16 10 6 0 7 -4 4 -10z m-5925 -104 c0 -3 -4 -8
-10 -11 -5 -3 -10 -1 -10 4 0 6 5 11 10 11 6 0 10 -2 10 -4z m570 -150 c0 -2
-7 -7 -16 -10 -8 -3 -12 -2 -9 4 6 10 25 14 25 6z m-12183 -102 c-3 -3 -12 -4
-19 -1 -8 3 -5 6 6 6 11 1 17 -2 13 -5z m18083 -14 c-20 -13 -33 -13 -25 0 3
6 14 10 23 10 15 0 15 -2 2 -10z m-9610 -75 c0 -2 -10 -10 -22 -16 -21 -11
-22 -11 -9 4 13 16 31 23 31 12z m-1360 -115 c0 -5 -5 -10 -11 -10 -5 0 -7 5
-4 10 3 6 8 10 11 10 2 0 4 -4 4 -10z m-5825 -200 c3 -5 1 -10 -4 -10 -6 0
-11 5 -11 10 0 6 2 10 4 10 3 0 8 -4 11 -10z m12030 -160 c-3 -5 -11 -10 -16
-10 -6 0 -7 5 -4 10 3 6 11 10 16 10 6 0 7 -4 4 -10z m-13216 -256 c-17 -21
-31 -17 -19 6 6 11 15 18 21 14 6 -4 6 -11 -2 -20z m11196 -63 c-3 -6 -11 -11
-17 -11 -6 0 -6 6 2 15 14 17 26 13 15 -4z m-8705 -11 c0 -5 -4 -10 -10 -10
-5 0 -10 5 -10 10 0 6 5 10 10 10 6 0 10 -4 10 -10z m13950 -210 c0 -5 -5 -10
-11 -10 -5 0 -7 5 -4 10 3 6 8 10 11 10 2 0 4 -4 4 -10z m-2960 -560 c0 -5 -7
-10 -16 -10 -8 0 -12 5 -9 10 3 6 10 10 16 10 5 0 9 -4 9 -10z m-10920 -194
c0 -2 -7 -7 -16 -10 -8 -3 -12 -2 -9 4 6 10 25 14 25 6z m11910 -156 c0 -5 -5
-10 -11 -10 -5 0 -7 5 -4 10 3 6 8 10 11 10 2 0 4 -4 4 -10z m4885 -200 c-3
-5 -18 -10 -33 -10 -21 0 -24 2 -12 10 20 13 53 13 45 0z m-7405 -10 c0 -5 -4
-10 -10 -10 -5 0 -10 5 -10 10 0 6 5 10 10 10 6 0 10 -4 10 -10z m-8470 -190
c0 -5 -5 -10 -11 -10 -5 0 -7 5 -4 10 3 6 8 10 11 10 2 0 4 -4 4 -10z m13645
-160 c-27 -12 -43 -12 -25 0 8 5 22 9 30 9 10 0 8 -3 -5 -9z m-3235 -240 c0
-5 -5 -10 -11 -10 -5 0 -7 5 -4 10 3 6 8 10 11 10 2 0 4 -4 4 -10z m-5840 -64
c0 -2 -7 -7 -16 -10 -8 -3 -12 -2 -9 4 6 10 25 14 25 6z m4010 -36 c0 -5 -4
-10 -10 -10 -5 0 -10 5 -10 10 0 6 5 10 10 10 6 0 10 -4 10 -10z m-205 -80
c-3 -5 -11 -10 -16 -10 -6 0 -7 5 -4 10 3 6 11 10 16 10 6 0 7 -4 4 -10z
m-6125 -200 c0 -5 -5 -10 -11 -10 -5 0 -7 5 -4 10 3 6 8 10 11 10 2 0 4 -4 4
-10z m-2691 -133 c-2 -1 -13 -9 -24 -17 -19 -14 -19 -14 -6 3 7 9 18 17 24 17
6 0 8 -1 6 -3z m-1714 -467 c-3 -5 -11 -10 -16 -10 -6 0 -7 5 -4 10 3 6 11 10
16 10 6 0 7 -4 4 -10z m2475 -44 c0 -3 -4 -8 -10 -11 -5 -3 -10 -1 -10 4 0 6
5 11 10 11 6 0 10 -2 10 -4z m8000 -126 c0 -5 -5 -10 -11 -10 -5 0 -7 5 -4 10
3 6 8 10 11 10 2 0 4 -4 4 -10z m-9046 -184 c-21 -15 -30 -14 -19 3 3 6 14 11
23 11 13 0 13 -2 -4 -14z m11396 4 c0 -5 -5 -10 -11 -10 -5 0 -7 5 -4 10 3 6
8 10 11 10 2 0 4 -4 4 -10z m3055 -39 c-8 -14 -45 -14 -45 0 0 5 4 8 8 5 4 -2
14 -1 22 4 17 11 25 6 15 -9z m-71 -32 c-3 -5 -10 -7 -15 -4 -5 4 -9 1 -9 -4
0 -6 5 -11 10 -11 6 0 -1 -11 -15 -25 -14 -14 -25 -33 -25 -41 0 -8 -4 -12
-10 -9 -5 3 -10 0 -10 -8 0 -8 -12 -18 -27 -22 -16 -4 -37 -16 -47 -27 -19
-20 -19 -20 0 -15 72 21 244 32 244 16 0 -5 -15 -9 -32 -9 -18 0 -28 -4 -22
-8 6 -4 13 -15 17 -24 5 -13 1 -18 -13 -18 -10 0 -22 -5 -25 -10 -4 -6 -10 -8
-15 -5 -5 3 -11 1 -15 -5 -4 -6 -10 -8 -14 -6 -4 3 -17 -3 -27 -12 -27 -25
-88 -52 -115 -51 -13 0 -34 -2 -46 -6 -22 -7 -29 2 -24 29 1 5 -2 12 -7 15 -5
3 -12 18 -16 34 -5 23 -3 29 16 37 18 7 19 9 6 9 -10 1 -18 6 -18 11 0 6 8 11
18 11 16 1 16 2 0 6 -10 2 -18 9 -18 14 0 5 8 9 18 10 10 0 12 3 5 6 -7 2 -13
9 -13 14 0 6 5 7 10 4 6 -3 13 0 16 8 3 8 18 17 34 21 19 3 28 10 25 19 -4 9
13 17 57 26 35 8 57 16 50 18 -21 8 -5 20 28 21 17 0 28 -4 24 -9z m-8424 -54
c-7 -9 -15 -13 -17 -11 -7 7 7 26 19 26 6 0 6 -6 -2 -15z m8560 -85 c0 -5 -4
-10 -10 -10 -5 0 -10 5 -10 10 0 6 5 10 10 10 6 0 10 -4 10 -10z m-45 -50 c3
-5 1 -10 -4 -10 -6 0 -11 5 -11 10 0 6 2 10 4 10 3 0 8 -4 11 -10z m555 -10
c0 -5 -5 -10 -11 -10 -5 0 -7 5 -4 10 3 6 8 10 11 10 2 0 4 -4 4 -10z m-13340
-10 c0 -5 -5 -10 -11 -10 -5 0 -7 5 -4 10 3 6 8 10 11 10 2 0 4 -4 4 -10z
m810 6 c0 -3 -4 -8 -10 -11 -5 -3 -10 -1 -10 4 0 6 5 11 10 11 6 0 10 -2 10
-4z m1590 -5 c0 -5 -7 -12 -16 -15 -14 -5 -15 -4 -4 9 14 17 20 19 20 6z
m10258 -161 c7 0 10 4 7 10 -9 14 37 8 53 -7 6 -6 12 -16 12 -22 0 -6 5 -11
10 -11 6 0 10 -9 10 -20 0 -11 -4 -20 -10 -20 -13 0 -13 -37 1 -46 6 -3 9 -15
6 -25 -3 -12 0 -19 9 -19 15 0 18 -16 15 -62 -1 -17 3 -28 11 -28 7 -1 -3 -10
-22 -20 l-35 -20 30 6 c47 10 19 -10 -48 -35 -32 -12 -63 -18 -69 -15 -7 4 -6
9 1 14 7 3 -2 7 -19 7 -18 0 -30 -6 -30 -13 0 -8 6 -11 15 -8 8 4 15 2 15 -4
0 -9 -72 -40 -230 -97 -41 -15 -88 -35 -105 -44 -61 -34 -113 -51 -118 -38 -3
7 -6 5 -6 -5 -1 -9 -5 -20 -11 -23 -6 -3 -7 1 -4 10 4 10 -1 21 -12 30 -11 7
-15 17 -10 22 5 4 11 2 13 -5 3 -6 9 -9 14 -6 6 3 3 11 -7 18 -23 17 -8 39 22
33 13 -2 25 1 28 8 3 9 -3 11 -17 7 l-22 -5 20 20 c14 15 24 18 33 10 9 -7 18
-2 33 17 11 14 27 33 35 40 8 8 14 19 14 24 0 6 6 13 13 16 9 5 9 7 -2 12 -11
5 -9 10 8 23 12 9 25 32 28 51 3 19 9 43 14 53 5 9 7 17 4 17 -3 0 13 20 36
45 23 25 51 45 61 45 10 0 21 6 24 14 3 9 23 14 58 14 55 0 101 24 89 46 -3 6
0 5 8 -1 7 -7 19 -13 27 -13z m-4033 -40 c-3 -5 -11 -10 -16 -10 -6 0 -7 5 -4
10 3 6 11 10 16 10 6 0 7 -4 4 -10z m-11955 -108 c0 -4 -9 -13 -20 -20 -22
-13 -27 -3 -8 16 14 14 28 16 28 4z m14840 -36 c45 -21 49 -25 33 -35 -17 -10
-16 -10 5 -11 14 0 22 -6 23 -17 0 -10 2 -28 5 -40 3 -17 -1 -23 -14 -23 -13
0 -14 -2 -4 -9 20 -12 0 -122 -25 -132 -16 -7 -69 -84 -97 -141 -31 -63 -134
-178 -160 -178 -9 0 -16 -5 -16 -12 0 -6 -3 -8 -6 -5 -4 3 -16 1 -27 -5 -34
-18 -127 -37 -127 -26 0 6 -9 8 -20 5 -18 -5 -25 3 -21 26 0 4 -7 7 -16 7 -15
0 -15 1 -1 13 10 7 19 32 21 59 5 44 4 47 -14 38 -15 -8 -17 -7 -13 5 4 8 11
15 18 15 6 0 4 5 -4 11 -12 8 -11 9 5 5 18 -5 21 -1 21 37 2 112 13 137 59
137 9 0 15 6 14 13 -4 22 13 67 23 61 5 -3 8 0 6 8 -3 15 96 118 114 118 5 0
7 4 4 9 -8 12 24 37 57 45 17 4 25 11 21 18 -4 7 -3 8 5 4 6 -4 17 -3 24 2 7
5 21 12 32 15 11 2 21 5 22 6 0 0 24 -10 53 -23z m100 -166 c0 -5 -5 -10 -11
-10 -5 0 -7 5 -4 10 3 6 8 10 11 10 2 0 4 -4 4 -10z m-4940 -20 c0 -5 -5 -10
-11 -10 -5 0 -7 5 -4 10 3 6 8 10 11 10 2 0 4 -4 4 -10z m-6150 -30 c0 -5 -5
-10 -11 -10 -5 0 -7 5 -4 10 3 6 8 10 11 10 2 0 4 -4 4 -10z m1310 -40 c0 -5
-4 -10 -10 -10 -5 0 -10 5 -10 10 0 6 5 10 10 10 6 0 10 -4 10 -10z m10280
-25 c0 -8 -4 -15 -8 -15 -5 0 -9 7 -9 15 0 8 4 15 9 15 4 0 8 -7 8 -15z
m-8070 -14 c0 -5 -7 -11 -14 -14 -10 -4 -13 -1 -9 9 6 15 23 19 23 5z m6680
-11 c0 -5 -7 -10 -16 -10 -8 0 -12 5 -9 10 3 6 10 10 16 10 5 0 9 -4 9 -10z
m340 -204 c0 -2 -7 -7 -16 -10 -8 -3 -12 -2 -9 4 6 10 25 14 25 6z m-465 -46
c3 -5 1 -10 -4 -10 -6 0 -11 5 -11 10 0 6 2 10 4 10 3 0 8 -4 11 -10z m447
-12 c-7 -7 -12 -8 -12 -2 0 14 12 26 19 19 2 -3 -1 -11 -7 -17z m-8862 -43
c-7 -8 -16 -15 -21 -15 -5 0 -6 7 -3 15 4 8 13 15 21 15 13 0 13 -3 3 -15z
m7530 -134 c0 -5 -7 -11 -15 -15 -15 -5 -20 5 -8 17 9 10 23 9 23 -2z m-2580
-21 c0 -5 -4 -10 -10 -10 -5 0 -10 5 -10 10 0 6 5 10 10 10 6 0 10 -4 10 -10z
m-390 -15 c-7 -8 -17 -15 -22 -15 -6 0 -5 7 2 15 7 8 17 15 22 15 6 0 5 -7 -2
-15z m-7060 -129 c0 -2 -7 -7 -16 -10 -8 -3 -12 -2 -9 4 6 10 25 14 25 6z
m7960 -6 c0 -5 6 -10 14 -10 8 0 16 -6 19 -14 4 -10 18 -12 51 -9 29 4 51 1
61 -7 8 -7 22 -10 30 -6 8 3 15 0 15 -6 0 -7 5 -6 15 2 12 10 15 10 15 -3 0
-10 6 -13 20 -10 11 3 20 0 20 -6 0 -6 -6 -11 -12 -12 -7 -1 3 -5 22 -10 19
-5 45 -7 57 -4 15 4 29 -4 46 -24 14 -17 27 -27 31 -24 9 10 36 -18 29 -31 -3
-6 -2 -8 2 -3 5 4 21 -4 35 -18 34 -33 51 -36 195 -40 154 -3 157 -3 151 -13
-3 -5 12 -9 32 -10 57 -2 83 -7 90 -19 4 -5 13 -12 21 -15 11 -3 2 -16 -28
-46 -70 -68 -37 -95 102 -87 82 5 82 4 98 -24 10 -16 16 -50 16 -77 l0 -49 39
0 c21 1 74 9 118 20 61 15 88 16 125 9 35 -7 56 -6 77 3 42 18 129 16 148 -2
16 -16 82 -28 154 -27 38 0 41 -2 30 -16 -10 -12 -10 -14 -1 -8 8 4 17 -2 24
-16 13 -29 56 -32 70 -5 6 9 14 15 19 12 4 -3 11 2 14 11 5 12 10 14 20 5 7
-6 16 -8 20 -4 4 4 24 9 44 10 28 2 33 0 22 -8 -12 -8 -9 -10 13 -6 15 2 30 0
34 -6 3 -5 1 -7 -5 -3 -6 3 -13 2 -16 -3 -4 -5 1 -8 10 -7 8 1 19 8 24 15 6
10 9 10 15 1 4 -6 13 -9 21 -6 7 3 16 1 19 -5 4 -5 13 -2 22 7 14 14 18 14 27
3 17 -22 105 -17 146 9 19 12 34 24 33 27 -2 3 0 5 3 4 4 0 11 5 15 13 6 8 9
9 9 1 0 -7 18 -12 45 -13 68 -1 75 -3 75 -12 0 -5 6 -6 13 -1 20 12 60 15 52
3 -3 -5 0 -10 7 -10 7 0 1 -8 -14 -18 -19 -11 -30 -28 -34 -52 -4 -19 -12 -38
-18 -42 -7 -4 -4 -14 8 -27 13 -15 15 -21 6 -21 -7 0 -10 -3 -7 -6 4 -4 12 -2
19 3 7 6 28 10 46 9 17 0 32 2 32 5 0 4 20 12 45 19 24 7 63 28 87 48 37 31
39 32 17 6 -15 -16 -34 -41 -43 -55 -19 -30 -133 -112 -145 -104 -5 2 -16 -4
-26 -15 -9 -10 -49 -32 -87 -47 -55 -21 -73 -33 -80 -54 -8 -23 -19 -29 -83
-44 -50 -11 -87 -15 -117 -10 -24 5 -70 8 -103 7 -33 0 -64 3 -70 8 -12 10
-14 10 -61 10 -27 0 -37 5 -41 19 -5 19 -45 31 -105 31 -16 0 -28 4 -28 8 0
10 -79 0 -98 -12 -8 -4 -34 -9 -60 -11 -26 -1 -82 -12 -126 -24 -43 -11 -87
-21 -98 -21 -11 0 -33 -11 -50 -25 -16 -14 -36 -26 -44 -26 -8 -1 -18 -3 -24
-4 -5 -1 -43 -3 -82 -4 -60 -2 -69 -4 -48 -12 14 -6 48 -11 77 -12 33 -1 54
-6 57 -14 3 -7 1 -13 -4 -13 -12 0 -14 -39 -2 -41 47 -7 154 -4 218 6 44 7
116 11 161 9 49 -3 84 0 88 6 3 5 40 10 80 10 41 0 95 7 120 16 26 8 52 13 58
11 7 -2 20 0 29 4 10 5 19 5 23 0 3 -6 18 -6 36 -1 26 8 29 7 19 -5 -7 -8 -19
-15 -26 -15 -8 0 -14 -5 -14 -12 0 -6 -3 -9 -6 -5 -7 7 -44 -24 -44 -37 0 -14
-83 -96 -97 -96 -11 0 -61 -19 -102 -39 -8 -4 -19 -23 -25 -43 -7 -24 -28 -50
-61 -77 -27 -23 -52 -41 -55 -41 -3 0 -6 14 -7 31 -1 17 -6 36 -12 43 -5 6
-12 25 -15 43 -9 38 -43 63 -71 53 -11 -5 -39 -27 -62 -49 -23 -23 -49 -41
-58 -41 -9 0 -15 -9 -15 -21 0 -13 -21 -42 -50 -71 l-49 -48 -163 -10 c-217
-13 -214 -13 -316 -58 -49 -23 -127 -48 -177 -58 -50 -9 -94 -20 -100 -24 -5
-5 -32 -20 -60 -35 -27 -16 -66 -40 -85 -55 -19 -15 -45 -33 -58 -39 -29 -16
-109 -4 -121 17 -8 14 -12 14 -25 3 -9 -8 -15 -21 -14 -30 3 -14 -13 -17 -102
-22 -58 -4 -156 -14 -218 -23 -62 -8 -244 -23 -405 -31 -407 -22 -896 -73
-992 -105 -33 -10 -136 -37 -228 -60 -162 -38 -170 -39 -205 -24 -28 12 -58
14 -122 10 -84 -5 -72 3 25 18 22 4 44 11 49 16 14 14 18 50 5 50 -8 0 -8 5 1
15 10 12 10 15 0 15 -7 0 -10 7 -7 15 10 23 -9 27 -50 10 -21 -9 -51 -16 -68
-16 -16 -1 -43 -6 -60 -14 -54 -23 -109 -39 -143 -39 -18 -1 -36 -7 -40 -13
-6 -10 -17 -8 -47 8 -21 11 -45 27 -53 36 -10 9 -27 13 -46 10 -27 -4 -100 20
-119 39 -18 18 -82 12 -107 -10 -70 -62 -202 -102 -239 -73 -7 6 -45 11 -85
11 -53 0 -78 -5 -100 -19 -17 -11 -39 -19 -50 -17 -34 5 -76 24 -76 34 0 31
-193 51 -204 21 -3 -7 -12 -10 -21 -7 -8 4 -22 1 -30 -6 -24 -20 -121 -21
-213 -1 -72 15 -104 17 -183 9 -55 -5 -106 -5 -120 0 -18 7 -31 3 -62 -19 -31
-22 -45 -26 -75 -22 -20 4 -47 13 -59 21 -18 11 -67 14 -225 15 -112 0 -226
-3 -255 -7 -44 -7 -53 -12 -63 -37 l-12 -28 -85 4 c-46 2 -90 8 -96 13 -7 5
-30 13 -52 16 -56 10 -122 41 -102 49 9 3 17 1 19 -4 2 -6 17 -3 36 6 17 9 37
13 43 9 8 -4 9 -3 5 4 -5 8 0 12 13 12 12 0 21 6 21 13 0 8 4 7 10 -3 9 -13
10 -13 10 0 0 13 1 13 10 0 6 -9 10 -11 10 -3 0 7 7 10 15 7 8 -4 21 -1 29 5
7 6 16 8 19 4 4 -3 12 -1 19 5 7 5 36 13 63 16 86 10 90 11 104 20 10 7 12 6
6 -4 -6 -10 -2 -12 16 -6 13 4 40 9 59 12 19 2 70 16 113 30 43 14 85 23 93
20 9 -4 12 -2 8 5 -4 8 1 9 16 4 14 -4 25 -2 30 5 4 7 22 14 40 15 18 2 36 8
40 14 4 7 18 13 31 15 14 1 30 5 35 9 10 6 44 12 111 20 11 2 28 9 37 16 9 7
22 11 30 8 7 -3 22 0 32 6 11 7 30 12 44 12 14 0 30 7 37 15 9 10 12 11 13 3
0 -7 4 -13 10 -13 5 0 7 7 4 15 -4 10 0 15 11 15 9 0 13 -4 10 -10 -3 -5 3
-10 14 -10 12 0 21 6 21 13 0 9 2 9 9 -1 7 -11 9 -10 15 3 3 10 11 13 18 9 16
-10 77 -5 102 8 13 7 16 7 12 -1 -4 -6 -2 -11 3 -11 6 0 11 5 11 11 0 7 11 9
27 6 15 -3 35 0 46 7 15 8 21 8 24 -2 4 -10 8 -10 19 -1 11 9 18 8 31 -2 9 -8
14 -9 10 -3 -4 8 13 13 51 17 33 4 58 2 60 -3 2 -6 11 -6 23 0 11 6 25 10 32
9 18 -2 57 12 53 20 -2 3 48 7 112 8 65 1 117 2 117 3 0 0 27 2 60 5 33 2 77
11 98 20 29 12 42 13 58 4 17 -9 20 -8 14 1 -6 10 -1 11 17 7 16 -4 31 -1 44
11 10 9 30 18 44 20 14 1 27 7 29 13 2 8 6 7 11 -1 5 -8 13 -9 21 -4 8 5 16 9
19 10 19 4 39 17 35 24 -2 4 7 12 20 18 14 7 25 16 25 22 0 5 6 10 14 10 8 0
17 7 20 16 3 8 10 12 16 9 5 -3 10 -1 10 4 0 6 8 11 18 11 10 0 24 6 30 12 10
10 14 10 21 0 4 -8 15 -10 26 -6 18 7 18 8 -1 15 -15 6 -13 8 12 8 16 1 40 10
52 21 11 11 27 18 34 17 7 -2 9 -2 5 1 -5 2 1 11 12 19 12 8 21 20 21 28 0 8
4 17 10 20 6 4 7 -1 3 -11 -4 -10 17 1 48 26 51 41 115 76 132 72 4 -1 6 4 5
10 -2 7 2 12 9 11 6 -2 15 6 18 17 4 11 13 20 20 20 8 0 19 8 24 19 6 10 22
22 36 25 14 4 23 11 20 16 -3 5 -1 11 5 15 5 3 10 1 10 -4 0 -6 5 -11 10 -11
6 0 10 7 10 15 0 9 12 18 30 22 23 4 28 9 20 18 -9 11 -7 12 9 8 15 -4 21 -1
21 11 0 9 8 16 20 16 11 0 20 5 20 10 0 6 8 10 17 10 13 0 14 3 5 12 -9 9 -3
15 27 28 39 18 91 64 91 80 0 5 7 7 15 4 11 -5 15 1 15 20 0 16 6 26 15 26 8
0 15 5 15 10 0 6 7 10 15 10 8 0 15 5 15 10 0 6 7 10 17 10 14 0 79 42 93 60
3 4 17 6 32 6 14 -1 26 1 25 4 -3 11 28 50 40 50 7 0 13 5 13 10 0 6 6 10 13
10 6 0 30 18 51 40 21 22 54 50 73 62 18 13 35 30 38 39 5 16 75 46 121 53 11
2 26 6 33 10 6 4 24 10 39 12 15 3 31 9 37 15 5 5 17 9 26 9 10 0 24 6 31 13
7 8 30 17 51 21 21 4 35 10 33 15 -6 8 105 33 125 28 8 -2 10 -2 6 1 -5 2 1
11 12 19 12 8 26 11 31 8 6 -3 10 -2 10 3 0 5 9 12 20 15 11 3 17 1 14 -4 -7
-12 46 11 69 30 9 8 20 11 25 6 4 -4 1 -10 -6 -12 -6 -3 -10 -9 -6 -14 3 -5
12 -2 20 6 9 8 13 19 10 24 -7 11 22 23 35 15 13 -7 80 15 98 34 8 8 27 19 43
24 15 6 28 14 28 19 0 5 6 9 13 9 6 0 25 7 40 15 15 8 34 12 42 8 8 -3 15 -1
15 5 0 13 49 22 56 11 3 -5 12 -9 20 -9 11 0 13 6 9 20 -4 11 -2 20 4 20 6 0
11 -4 11 -10z m75 -10 c3 -5 -1 -10 -10 -10 -9 0 -13 5 -10 10 3 6 8 10 10 10
2 0 7 -4 10 -10z m-9038 -27 c-9 -9 -19 -14 -22 -11 -3 3 2 13 11 22 9 9 19
14 22 11 3 -3 -2 -13 -11 -22z m9593 17 c0 -5 -5 -10 -11 -10 -5 0 -7 5 -4 10
3 6 8 10 11 10 2 0 4 -4 4 -10z m-2420 -143 c0 -7 -9 -18 -20 -25 -20 -12 -25
-6 -14 22 7 19 34 21 34 3z m-3790 -55 c0 -4 -9 -13 -20 -20 -22 -13 -27 -3
-8 16 14 14 28 16 28 4z m9060 -69 c-53 -61 -92 -90 -116 -85 -13 2 -21 8 -18
13 3 5 -2 6 -10 3 -9 -3 -13 -11 -9 -17 3 -6 1 -7 -5 -3 -9 5 -9 12 0 26 7 10
14 18 17 18 4 -1 19 4 34 10 16 7 38 12 51 12 12 0 33 11 46 25 32 34 39 32
10 -2z m-8532 -47 c-7 -8 -15 -12 -17 -11 -5 6 10 25 20 25 5 0 4 -6 -3 -14z
m-32 -14 c-4 -11 2 -22 14 -30 17 -10 20 -10 20 4 0 14 3 14 15 4 8 -7 15 -8
15 -3 0 5 7 10 15 10 8 0 15 -4 15 -9 0 -4 3 -7 8 -6 4 1 19 -6 34 -16 15 -10
32 -15 37 -12 5 4 12 2 16 -4 3 -5 15 -10 27 -10 13 0 18 -5 15 -14 -4 -10 -1
-13 7 -10 7 3 16 -2 19 -10 4 -9 15 -16 26 -16 22 0 65 -21 71 -35 2 -5 11 -9
20 -7 11 2 11 -1 -3 -12 -13 -10 -15 -16 -6 -22 7 -4 17 0 25 10 8 11 14 13
19 7 3 -6 1 -11 -6 -11 -8 0 -8 -4 1 -15 15 -18 42 -19 59 -2 10 10 11 7 7
-15 -3 -21 -1 -26 11 -21 11 4 11 8 3 13 -9 6 -9 9 0 15 7 4 15 2 19 -4 5 -7
15 -9 26 -5 13 5 16 4 11 -4 -4 -7 -14 -12 -23 -12 -9 0 -13 -3 -9 -7 4 -5 13
-8 19 -8 19 0 19 -25 0 -25 -15 -1 -14 -3 6 -14 18 -10 20 -15 10 -19 -8 -3
-3 -6 11 -7 l25 -1 -25 -11 -25 -11 28 -10 c16 -6 25 -17 23 -24 -3 -7 0 -15
5 -19 6 -3 8 -19 5 -35 -4 -22 -2 -27 9 -22 11 4 13 1 9 -11 -3 -9 -12 -16
-20 -16 -8 0 -14 -5 -14 -10 0 -7 6 -7 19 0 28 15 30 13 18 -15 -7 -14 -18
-23 -24 -20 -7 2 -13 0 -13 -5 0 -6 -6 -10 -14 -10 -9 0 -12 -9 -10 -27 2 -16
1 -22 -2 -15 -3 6 -13 12 -22 12 -15 0 -15 -2 -2 -10 13 -8 13 -10 0 -14 -37
-14 -100 -23 -100 -15 0 4 -15 11 -34 15 -26 4 -33 10 -29 21 5 12 1 14 -15 8
-16 -5 -22 -2 -22 9 0 9 7 16 15 16 8 0 15 5 15 11 0 7 -7 8 -17 4 -21 -9 -93
-12 -93 -4 0 3 6 11 13 18 7 8 2 7 -13 -2 -28 -18 -132 -16 -138 3 -2 5 -10
10 -18 10 -8 0 -11 -7 -8 -17 5 -17 5 -17 -9 0 -16 19 -37 23 -37 6 0 -8 -5
-7 -15 1 -9 7 -46 15 -83 17 -53 2 -70 7 -87 26 -11 12 -31 23 -45 24 -14 0
-34 3 -45 6 -21 4 -53 51 -54 79 -1 10 -11 22 -22 29 -15 8 -18 13 -10 19 7 4
14 16 16 26 2 10 4 20 4 22 1 1 1 5 0 8 0 4 5 11 13 15 10 7 10 9 1 9 -7 0
-13 5 -13 11 0 6 8 8 19 4 11 -3 24 1 32 11 13 16 11 17 -13 10 -37 -9 -36 8
2 24 19 8 32 22 36 39 9 41 12 48 13 25 1 -11 8 -21 16 -21 8 0 16 10 16 21 1
18 2 18 6 3 4 -14 8 -16 19 -6 17 14 19 33 3 23 -7 -4 -10 -2 -7 6 2 7 19 14
37 16 28 4 32 1 27 -13 -6 -17 -5 -17 8 0 7 9 21 17 30 17 9 0 16 8 16 20 0
11 6 20 14 20 7 0 16 9 19 20 3 11 8 20 12 20 3 0 4 -8 1 -18z m8404 8 c0 -5
-5 -10 -10 -10 -6 0 -15 -11 -20 -25 -7 -19 -17 -25 -37 -24 -23 0 -25 2 -9 8
14 5 16 10 8 15 -16 9 -6 25 22 36 29 12 46 12 46 0z m-89 -27 c-8 -15 -10
-15 -11 -2 0 17 10 32 18 25 2 -3 -1 -13 -7 -23z m-173 -21 c-13 -9 -26 -20
-29 -25 -4 -5 -12 -6 -19 -2 -8 5 -11 4 -7 -2 4 -6 -20 -14 -56 -20 -90 -15
-137 -16 -137 -2 0 7 3 9 7 6 3 -4 16 4 29 18 15 16 24 20 27 12 3 -7 6 -4 6
6 1 10 9 18 21 18 11 1 26 2 33 3 6 1 18 -2 25 -7 8 -6 12 -6 12 2 0 6 12 9
28 7 15 -1 36 0 47 4 31 11 39 0 13 -18z m-219 -22 c-6 -5 -18 -6 -26 -3 -19
8 -16 11 13 11 17 0 22 -3 13 -8z m-8754 -10 c-3 -5 -11 -10 -16 -10 -6 0 -7
5 -4 10 3 6 11 10 16 10 6 0 7 -4 4 -10z m7515 -50 c0 -5 -4 -10 -10 -10 -5 0
-10 5 -10 10 0 6 5 10 10 10 6 0 10 -4 10 -10z m-8210 -34 c0 -3 -4 -8 -10
-11 -5 -3 -10 -1 -10 4 0 6 5 11 10 11 6 0 10 -2 10 -4z m410 -46 c0 -5 -5
-10 -11 -10 -5 0 -7 5 -4 10 3 6 8 10 11 10 2 0 4 -4 4 -10z m9060 -55 c-7 -9
-15 -13 -18 -10 -3 2 1 11 8 20 7 9 15 13 18 10 3 -2 -1 -11 -8 -20z m-4570
-129 c0 -3 -4 -8 -10 -11 -5 -3 -10 -1 -10 4 0 6 5 11 10 11 6 0 10 -2 10 -4z
m-2746 -30 c-3 -9 -10 -16 -15 -16 -5 0 -4 9 3 20 14 22 21 20 12 -4z m1636
-366 c0 -5 -5 -10 -11 -10 -5 0 -7 5 -4 10 3 6 8 10 11 10 2 0 4 -4 4 -10z
m-2466 -766 c3 -8 2 -12 -4 -9 -6 3 -10 10 -10 16 0 14 7 11 14 -7z m99 -21
c-7 -2 -21 -2 -30 0 -10 3 -4 5 12 5 17 0 24 -2 18 -5z m62 -13 c3 -6 -1 -7
-9 -4 -18 7 -21 14 -7 14 6 0 13 -4 16 -10z m2885 -50 c0 -5 -2 -10 -4 -10 -3
0 -8 5 -11 10 -3 6 -1 10 4 10 6 0 11 -4 11 -10z m-1382 -1697 c-15 -2 -42 -2
-60 0 -18 2 -6 4 27 4 33 0 48 -2 33 -4z m-478 -22 l45 -8 -55 -2 c-55 -2 -55
-2 -25 -16 29 -13 30 -13 5 -14 -25 -2 -24 -2 10 -30 19 -16 37 -26 40 -22 11
17 50 24 140 27 52 1 125 4 163 5 66 2 89 13 45 22 -13 2 13 4 57 4 71 0 75
-1 30 -7 -27 -4 -39 -8 -25 -9 86 -7 108 -7 103 3 -9 15 40 -26 50 -41 4 -7
27 -13 49 -13 38 0 40 -1 23 -14 -16 -12 -11 -13 43 -14 34 0 62 4 62 10 0 5
5 6 10 3 6 -3 10 0 10 7 0 8 25 26 55 41 52 27 54 30 48 59 l-6 31 44 -8 c24
-4 69 -11 99 -15 l55 -7 -65 -3 c-45 -1 -57 -4 -40 -9 l25 -7 -25 -7 c-13 -3
-22 -8 -19 -11 4 -4 49 -13 77 -15 6 -1 12 -8 12 -16 0 -12 14 -15 63 -15 44
0 58 -3 47 -10 -13 -8 -13 -10 2 -10 9 0 20 5 23 10 3 6 14 10 23 10 14 0 15
-2 2 -10 -12 -7 -12 -10 4 -16 10 -4 27 -2 37 4 10 7 26 12 35 12 14 0 15 -2
3 -16 -12 -15 -11 -16 11 -9 14 4 27 12 28 16 2 5 8 9 13 9 4 0 6 -7 3 -15 -7
-17 21 -21 31 -5 3 6 20 10 37 10 22 0 29 -4 25 -14 -4 -9 3 -16 19 -20 13 -4
24 -13 24 -21 0 -9 9 -15 23 -15 26 0 50 14 46 26 -2 8 11 16 72 45 8 4 22 3
31 -2 9 -5 58 -5 109 -1 83 6 128 4 204 -9 11 -2 30 -15 42 -28 14 -14 34 -23
50 -23 16 0 38 -7 51 -15 61 -38 148 -49 153 -18 1 6 9 15 18 22 14 11 14 12
1 13 -12 0 -12 2 -2 9 7 4 12 14 10 22 -2 8 3 13 11 11 8 -2 11 3 8 11 -7 20
11 46 21 30 4 -7 35 -15 67 -19 36 -4 70 -15 85 -27 24 -19 24 -19 3 -13 -25
8 -32 -8 -9 -17 10 -4 13 -18 10 -46 -2 -23 1 -41 6 -41 6 0 10 -7 10 -15 0
-8 5 -15 10 -15 6 0 25 -14 43 -31 17 -17 42 -35 55 -40 12 -5 22 -15 22 -24
0 -18 20 -21 21 -2 0 10 2 10 6 0 2 -7 11 -13 19 -13 8 0 17 -7 20 -15 4 -8
10 -13 14 -10 5 3 15 -2 23 -10 9 -8 25 -15 36 -15 13 0 21 -7 22 -17 1 -17 2
-17 6 0 2 9 9 17 15 17 5 0 8 -7 5 -14 -4 -11 -1 -13 10 -9 9 3 28 7 42 8 14
1 25 7 24 13 -3 14 50 8 55 -7 5 -15 19 -14 25 3 4 10 1 13 -9 9 -7 -3 -14 0
-14 6 0 6 4 11 8 11 4 0 8 18 9 40 1 22 -2 40 -8 40 -5 0 -9 -11 -9 -25 0 -14
-4 -25 -10 -25 -5 0 -7 13 -4 29 6 27 3 30 -22 33 -24 2 -30 9 -35 38 -4 19
-7 29 -8 21 -1 -11 -5 -11 -20 3 -10 9 -23 16 -28 14 -5 -2 -25 6 -45 16 -31
17 -35 23 -27 38 6 10 7 23 4 28 -6 9 22 15 53 11 6 -1 12 4 12 11 0 8 3 9 8
2 5 -7 41 -8 107 -3 55 4 103 5 106 3 7 -4 134 -15 224 -19 39 -2 120 -9 180
-14 61 -6 153 -13 205 -16 52 -3 140 -12 195 -20 160 -22 369 -37 516 -37
l135 0 11 -29 c10 -25 9 -31 -8 -40 -31 -16 -12 -29 41 -29 50 0 78 16 38 22
-13 2 -24 10 -26 19 -2 12 8 18 39 23 51 8 106 -8 136 -40 12 -13 31 -24 41
-24 11 0 31 -9 45 -20 14 -11 31 -20 39 -20 7 0 23 -7 34 -15 12 -8 40 -19 63
-25 22 -5 60 -15 83 -20 23 -6 47 -9 55 -6 7 3 13 1 13 -4 0 -6 5 -10 11 -10
6 0 17 -6 24 -14 8 -7 34 -20 59 -27 26 -7 46 -16 46 -20 0 -4 26 -19 58 -35
31 -16 60 -33 63 -38 4 -5 21 -7 38 -4 24 4 31 1 26 -9 -3 -10 2 -14 18 -12
30 3 82 -23 82 -41 0 -41 -43 -54 -176 -53 -56 1 -87 6 -117 22 -23 12 -48 21
-57 21 -8 0 -23 4 -33 9 -40 22 -147 52 -168 47 -13 -4 -25 -2 -28 3 -3 5 -15
7 -25 4 -11 -3 -35 0 -54 6 -19 6 -72 12 -118 13 -68 1 -92 6 -127 25 -34 19
-58 23 -121 23 -49 0 -89 5 -107 14 -17 10 -56 15 -103 14 -42 0 -102 3 -133
7 -63 8 -152 -1 -143 -15 3 -4 -3 -6 -14 -3 -10 3 -22 0 -25 -6 -4 -5 -14 -7
-23 -4 -10 4 -14 2 -10 -4 4 -6 -5 -13 -22 -16 -29 -6 -111 -77 -111 -96 0 -6
-4 -11 -9 -11 -16 0 -3 -58 17 -78 25 -25 142 -72 180 -72 37 0 134 -39 126
-51 -3 -5 3 -9 14 -9 10 0 29 -11 42 -25 25 -26 46 -32 52 -15 5 15 108 40
137 33 18 -4 22 -3 16 7 -5 9 -4 11 4 6 6 -4 28 2 47 13 39 24 133 29 275 16
63 -6 83 -4 110 9 26 13 70 18 184 22 227 7 322 15 343 28 5 3 15 -1 22 -9 7
-8 17 -12 22 -9 11 7 75 -65 70 -79 -2 -5 4 -7 13 -3 9 3 13 2 10 -3 -3 -5 3
-12 12 -14 10 -3 2 -5 -17 -6 -46 -1 -77 -23 -95 -67 -14 -33 -13 -39 7 -77
12 -23 23 -48 24 -56 2 -8 5 -25 9 -38 3 -13 2 -22 -2 -22 -5 1 -23 -4 -42
-11 -32 -12 -33 -14 -15 -27 10 -8 29 -12 41 -10 19 3 20 1 12 -20 -5 -13 -9
-35 -9 -49 0 -15 -6 -24 -15 -24 -9 0 -15 -9 -15 -22 -1 -21 -2 -22 -14 -5
-16 21 -27 22 -20 2 4 -8 1 -15 -5 -15 -6 0 -11 4 -11 8 0 14 -29 10 -34 -5
-4 -8 2 -13 17 -13 16 0 18 -3 8 -9 -9 -6 -10 -11 -2 -15 6 -4 16 -4 21 -1 6
3 10 2 10 -3 0 -6 -12 -13 -27 -17 l-28 -8 25 -7 c23 -7 23 -8 4 -9 -24 -1
-37 -23 -28 -46 4 -9 0 -15 -9 -15 -8 0 -18 6 -20 13 -3 6 -6 1 -6 -13 -1 -20
-3 -22 -11 -10 -9 13 -11 13 -19 1 -8 -12 -11 -12 -25 1 -11 12 -29 15 -65 11
-30 -3 -52 0 -56 7 -5 8 -10 8 -20 0 -8 -7 -20 -8 -27 -4 -15 10 -37 15 -58
15 -67 -2 -114 -1 -117 3 -3 2 -19 -2 -37 -9 -19 -8 -46 -12 -61 -9 -22 4 -26
2 -22 -11 9 -22 -2 -19 -24 7 l-20 23 5 -25 c3 -14 3 -19 0 -12 -8 16 -44 15
-67 -3 -11 -7 -26 -11 -35 -8 -12 5 -14 1 -10 -15 4 -12 2 -25 -3 -28 -5 -3
-9 -1 -9 4 0 6 -9 8 -20 5 -11 -3 -20 -9 -20 -14 0 -4 -15 -9 -32 -11 -18 -2
-32 -8 -31 -14 1 -7 -5 -10 -16 -7 -9 2 -23 -2 -30 -11 -7 -8 -37 -20 -67 -27
-32 -7 -54 -18 -54 -26 0 -7 -5 -13 -11 -13 -5 0 -8 4 -5 9 3 4 -12 8 -34 8
-22 0 -37 -3 -35 -8 3 -4 0 -11 -6 -15 -7 -4 -9 -3 -5 4 4 7 -5 11 -26 11 -60
-1 -167 19 -185 33 -7 6 -25 8 -39 5 -16 -3 -27 0 -31 9 -3 8 -11 14 -18 14
-38 0 -192 99 -177 114 3 3 -2 6 -11 6 -9 0 -17 7 -17 16 0 10 -6 14 -14 11
-11 -4 -13 -1 -9 10 5 13 2 15 -11 10 -15 -6 -17 -3 -13 13 3 10 2 18 -2 17
-3 -1 -6 0 -6 3 0 9 -49 75 -64 86 -13 10 -13 14 -2 28 8 10 9 16 3 16 -6 0
-11 8 -11 18 1 29 -19 96 -29 100 -6 2 -8 12 -5 22 3 11 0 20 -6 20 -6 0 -11
17 -11 39 0 22 -6 44 -15 51 -8 7 -15 22 -15 34 0 12 -9 27 -20 34 -11 6 -17
17 -15 24 3 7 -8 19 -24 26 -16 7 -31 21 -34 31 -3 15 -18 20 -64 26 -32 3
-63 5 -68 4 -6 -1 -18 1 -29 6 -12 5 -21 3 -27 -6 -7 -11 -9 -11 -9 2 0 19
-26 27 -103 35 -28 3 -56 9 -62 13 -15 12 -75 22 -75 12 0 -9 -30 -8 -47 2 -6
4 -14 3 -17 -2 -4 -6 -18 -6 -36 -1 -25 7 -30 6 -30 -8 0 -13 -2 -14 -9 -4 -4
8 -28 16 -52 19 -24 3 -48 9 -54 13 -5 4 -37 6 -70 4 -55 -3 -77 2 -175 35
-19 7 -44 14 -55 16 -71 16 -123 29 -140 36 -11 5 -36 9 -55 8 -65 -3 -89 1
-104 16 -8 8 -22 12 -30 9 -10 -4 -18 0 -22 10 -3 9 -11 16 -18 15 -32 -4 -66
2 -61 11 3 5 -18 20 -47 34 -29 13 -63 33 -75 45 -12 11 -34 23 -50 27 -15 4
-32 9 -38 13 -5 3 -17 6 -25 7 -8 0 -22 4 -30 7 -21 9 -153 27 -159 22 -2 -3
-12 2 -21 10 -9 8 -34 18 -56 21 -70 9 -99 13 -117 13 -11 1 -15 5 -11 13 5 7
2 9 -8 5 -9 -3 -21 0 -27 6 -7 7 -11 8 -11 0 0 -16 -61 -5 -75 13 -9 13 -23
15 -69 11 -42 -4 -56 -2 -53 7 4 10 -33 14 -53 6 -3 -1 -8 -2 -12 -1 -4 0 -42
3 -85 6 -43 3 -87 7 -98 9 -11 2 -24 4 -28 5 -5 0 -6 4 -4 9 5 7 -57 14 -145
16 -27 1 -48 4 -48 8 0 4 -26 5 -57 3 -136 -12 -212 -12 -216 -2 -2 6 -39 12
-88 14 -121 4 -268 32 -279 53 -6 12 -28 19 -72 24 -35 3 -64 10 -66 16 -2 5
-10 6 -17 4 -11 -5 -13 2 -8 32 6 34 33 101 33 81 0 -5 5 -5 11 -2 6 5 4 12
-8 20 -20 15 -11 30 22 38 15 3 13 5 -8 6 -18 1 -26 5 -21 12 7 11 38 9 134
-10z m548 -8 c-10 -2 -28 -2 -40 0 -13 2 -5 4 17 4 22 1 32 -1 23 -4z m-209
-19 c8 -7 -144 -3 -184 5 -25 5 1 6 70 3 61 -2 112 -6 114 -8z m374 -81 c-7
-2 -19 -2 -25 0 -7 3 -2 5 12 5 14 0 19 -2 13 -5z m1997 -33 c0 -5 -8 -10 -17
-10 -13 0 -11 -5 10 -18 30 -19 35 -32 11 -32 -8 0 -13 -4 -9 -10 3 -5 -7 -8
-25 -7 -16 1 -30 6 -30 11 0 4 -9 6 -20 3 -11 -3 -20 -1 -20 4 0 5 -6 9 -14 9
-15 0 -25 27 -19 48 6 15 133 17 133 2z m210 -210 c0 -5 -4 -10 -10 -10 -5 0
-10 5 -10 10 0 6 5 10 10 10 6 0 10 -4 10 -10z m2611 -353 c-9 -9 -10 -5 -7
13 6 36 8 37 13 16 3 -10 0 -23 -6 -29z m114 -77 c3 -5 -1 -10 -9 -10 -9 0
-16 5 -16 10 0 6 4 10 9 10 6 0 13 -4 16 -10z m-1138 -806 c-3 -3 -12 -4 -19
-1 -8 3 -5 6 6 6 11 1 17 -2 13 -5z"/>
<path d="M17475 6890 c-3 -5 -1 -10 4 -10 6 0 11 5 11 10 0 6 -2 10 -4 10 -3
0 -8 -4 -11 -10z"/>
<path d="M17375 6871 c-3 -5 -2 -12 3 -15 5 -3 9 1 9 9 0 17 -3 19 -12 6z"/>
<path d="M17357 6839 c7 -7 15 -10 18 -7 3 3 -2 9 -12 12 -14 6 -15 5 -6 -5z"/>
<path d="M16987 6689 c7 -7 15 -10 18 -7 3 3 -2 9 -12 12 -14 6 -15 5 -6 -5z"/>
<path d="M12365 6040 c3 -5 8 -10 11 -10 2 0 4 5 4 10 0 6 -5 10 -11 10 -5 0
-7 -4 -4 -10z"/>
<path d="M14518 5401 c-15 -18 -15 -19 20 -25 63 -11 216 -24 228 -19 21 8 3
42 -25 45 -44 5 -132 -8 -140 -20 -4 -7 -15 -10 -25 -6 -14 5 -15 9 -4 15 9 6
7 9 -9 9 -12 0 -23 5 -25 10 -2 6 -11 2 -20 -9z"/>
<path d="M14805 5140 c-3 -6 1 -7 9 -4 18 7 21 14 7 14 -6 0 -13 -4 -16 -10z"/>
<path d="M13538 5123 c-10 -2 -18 -9 -18 -14 0 -14 16 -11 30 6 7 8 11 14 9
14 -2 -1 -12 -3 -21 -6z"/>
<path d="M14415 4899 c-4 -5 3 -8 14 -6 28 4 34 12 11 14 -11 1 -22 -2 -25 -8z"/>
<path d="M13583 4874 c-48 -24 -43 -44 12 -44 43 0 44 1 42 30 -2 34 -9 36
-54 14z"/>
<path d="M13266 4789 c-22 -5 -89 -11 -150 -14 -61 -3 -115 -5 -121 -6 -5 0
-21 3 -35 7 -46 13 -115 16 -180 7 -36 -5 -119 -5 -185 -1 -117 7 -218 -3
-340 -32 -22 -5 -54 -10 -71 -10 -18 0 -45 -7 -60 -15 -16 -8 -37 -15 -46 -15
-10 0 -18 -5 -18 -11 0 -8 14 -10 43 -5 117 18 153 19 169 2 9 -9 22 -16 29
-16 7 0 -13 -23 -44 -51 -31 -28 -57 -55 -57 -60 0 -5 15 -9 34 -9 20 0 36 -6
39 -14 9 -23 76 -28 154 -12 39 9 134 18 210 22 76 4 146 11 155 15 23 12 169
40 178 34 17 -11 229 23 245 39 9 9 32 16 51 16 24 0 47 10 72 29 34 27 42 30
100 26 36 -2 62 0 62 5 0 6 6 10 13 10 6 0 22 11 34 24 l23 23 -65 -13 c-61
-13 -95 -11 -95 6 0 4 -18 10 -39 14 -22 3 -45 8 -53 10 -7 2 -31 0 -52 -5z"/>
<path d="M12154 4670 c-36 -14 -38 -30 -4 -30 37 0 73 17 65 31 -7 11 -32 11
-61 -1z"/>
<path d="M15810 5746 c0 -2 8 -10 18 -17 15 -13 16 -12 3 4 -13 16 -21 21 -21
13z"/>
<path d="M7660 5599 c0 -5 5 -7 10 -4 6 3 10 8 10 11 0 2 -4 4 -10 4 -5 0 -10
-5 -10 -11z"/>
<path d="M7916 5332 c-3 -5 1 -9 9 -9 8 0 12 4 9 9 -3 4 -7 8 -9 8 -2 0 -6 -4
-9 -8z"/>
<path d="M7656 5226 c3 -9 11 -16 16 -16 13 0 5 23 -10 28 -7 2 -10 -2 -6 -12z"/>
<path d="M12827 2013 c-13 -13 16 -33 48 -33 38 0 95 18 95 31 0 10 -133 13
-143 2z"/>
<path d="M12962 1973 c-19 -8 -4 -23 24 -23 16 0 24 5 22 13 -5 13 -26 18 -46
10z"/>
</g>
</svg>
